<svg aria-hidden="true" style="position: absolute; width: 0; height: 0; overflow: hidden;" version="1.1" xmlns="http://www.w3.org/2000/svg" xmlns:xlink="http://www.w3.org/1999/xlink">
<defs>
<symbol id="icon-loader" viewBox="0 0 24 24">
<path d="M11 2v4c0 0.552 0.448 1 1 1s1-0.448 1-1v-4c0-0.552-0.448-1-1-1s-1 0.448-1 1zM11 18v4c0 0.552 0.448 1 1 1s1-0.448 1-1v-4c0-0.552-0.448-1-1-1s-1 0.448-1 1zM4.223 5.637l2.83 2.83c0.391 0.391 1.024 0.391 1.414 0s0.391-1.024 0-1.414l-2.83-2.83c-0.391-0.391-1.024-0.391-1.414 0s-0.391 1.024 0 1.414zM15.533 16.947l2.83 2.83c0.391 0.391 1.024 0.391 1.414 0s0.391-1.024 0-1.414l-2.83-2.83c-0.391-0.391-1.024-0.391-1.414 0s-0.391 1.024 0 1.414zM2 13h4c0.552 0 1-0.448 1-1s-0.448-1-1-1h-4c-0.552 0-1 0.448-1 1s0.448 1 1 1zM18 13h4c0.552 0 1-0.448 1-1s-0.448-1-1-1h-4c-0.552 0-1 0.448-1 1s0.448 1 1 1zM5.637 19.777l2.83-2.83c0.391-0.391 0.391-1.024 0-1.414s-1.024-0.391-1.414 0l-2.83 2.83c-0.391 0.391-0.391 1.024 0 1.414s1.024 0.391 1.414 0zM16.947 8.467l2.83-2.83c0.391-0.391 0.391-1.024 0-1.414s-1.024-0.391-1.414 0l-2.83 2.83c-0.391 0.391-0.391 1.024 0 1.414s1.024 0.391 1.414 0z"></path>
</symbol>
<symbol id="icon-search" viewBox="0 0 24 24">
<path d="M10 18a7.952 7.952 0 0 0 4.897-1.688l4.396 4.396 1.414-1.414-4.396-4.396A7.952 7.952 0 0 0 18 10c0-4.411-3.589-8-8-8s-8 3.589-8 8 3.589 8 8 8zm0-14c3.309 0 6 2.691 6 6s-2.691 6-6 6-6-2.691-6-6 2.691-6 6-6z"></path>
</symbol>
<symbol id="icon-bag" viewBox="0 0 24 24">
<path d="M5 22h14c1.103 0 2-.897 2-2V9a1 1 0 0 0-1-1h-3V7c0-2.757-2.243-5-5-5S7 4.243 7 7v1H4a1 1 0 0 0-1 1v11c0 1.103.897 2 2 2zM9 7c0-1.654 1.346-3 3-3s3 1.346 3 3v1H9V7zm-4 3h2v2h2v-2h6v2h2v-2h2l.002 10H5V10z"></path>
</symbol>
<symbol id="icon-money" viewBox="0 0 24 24">
<path d="M21 4H3a1 1 0 0 0-1 1v14a1 1 0 0 0 1 1h18a1 1 0 0 0 1-1V5a1 1 0 0 0-1-1zm-1 11a3 3 0 0 0-3 3H7a3 3 0 0 0-3-3V9a3 3 0 0 0 3-3h10a3 3 0 0 0 3 3v6z"></path>
<path d="M12 8c-2.206 0-4 1.794-4 4s1.794 4 4 4 4-1.794 4-4-1.794-4-4-4zm0 6c-1.103 0-2-.897-2-2s.897-2 2-2 2 .897 2 2-.897 2-2 2z"></path>
</symbol>
<symbol id="icon-wallet" viewBox="0 0 24 24">
<path d="M16 12h2v4h-2z"></path>
<path d="M20 7V5c0-1.103-.897-2-2-2H5C3.346 3 2 4.346 2 6v12c0 2.201 1.794 3 3 3h15c1.103 0 2-.897 2-2V9c0-1.103-.897-2-2-2zM5 5h13v2H5a1.001 1.001 0 0 1 0-2zm15 14H5.012C4.55 18.988 4 18.805 4 18V8.815c.314.113.647.185 1 .185h15v10z"></path>
</symbol>
<symbol id="icon-credit-card" viewBox="0 0 24 24">
<circle cx="15.5" cy="13.5" r="2.5"></circle>
<path d="M12 13.5c0-.815.396-1.532 1-1.988A2.47 2.47 0 0 0 11.5 11a2.5 2.5 0 1 0 0 5 2.47 2.47 0 0 0 1.5-.512 2.486 2.486 0 0 1-1-1.988z">
</path>
<path d="M20 4H4c-1.103 0-2 .897-2 2v12c0 1.103.897 2 2 2h16c1.103 0 2-.897 2-2V6c0-1.103-.897-2-2-2zM4 18V6h16l.002 12H4z"></path>
</symbol>
<symbol id="icon-down-arrow" viewBox="0 0 24 24">
<path d="M11.178 19.569a.998.998 0 0 0 1.644 0l9-13A.999.999 0 0 0 21 5H3a1.002 1.002 0 0 0-.822 1.569l9 13z"></path>
</symbol>
<symbol id="icon-up-arrow" viewBox="0 0 24 24">
<path d="M3 19h18a1.002 1.002 0 0 0 .823-1.569l-9-13c-.373-.539-1.271-.539-1.645 0l-9 13A.999.999 0 0 0 3 19z"></path>
</symbol>
</defs>
</svg>
